<svg version="1.1" id="Layer_1" xmlns="http://www.w3.org/2000/svg" xmlns:xlink="http://www.w3.org/1999/xlink" x="0" y="0" viewBox="0 0 530.3 143.1" xml:space="preserve"><style>.st3{opacity:.1}</style><g id="Layer_2_00000096757183086015422390000017024748210391339173_"><g id="Layer_2-2"><path d="m238.3 36.2-17.2 64.1h-10.4l-11.8-38.9-11.8 38.9h-10.4l-17.1-64.1h13l9.9 40.4 11.7-40.4h9.4l11.7 40.4 10-40.4h13zm40.3 40.5c.1 3.6-.3 7.2-1.1 10.7-.7 2.8-2.2 5.5-4.2 7.6a19.4 19.4 0 0 1-14.6 5.8 18.7 18.7 0 0 1-18.8-13.4c-.8-3.5-1.1-7.1-1-10.7 0-8.4 1.8-14.5 5.4-18.3 3.6-3.8 8.4-5.7 14.4-5.7a19 19 0 0 1 14.5 5.7c3.7 3.8 5.5 9.9 5.4 18.3zm-11.8 0c0-5.7-.9-9.5-2.7-11.3a7.2 7.2 0 0 0-5.4-2.1 7 7 0 0 0-5.3 2.1c-1.8 1.8-2.7 5.6-2.7 11.3 0 5.8.9 9.6 2.7 11.4a7.6 7.6 0 0 0 5.3 2.1c2 .1 4-.7 5.4-2.1 1.8-1.7 2.7-5.6 2.7-11.4zm52.8-19.5-8.8 8.9a8.6 8.6 0 0 0-6.2-2.8 7 7 0 0 0-5.1 2.1 9 9 0 0 0-2.4 6.6v28.2h-11.7V53.3h11.4v4.5c2.8-3.3 6.7-5 11.8-5 4-.1 8 1.5 11 4.4zm22 43h-6.7c-4.5 0-8-1.4-10.4-4.2a13.3 13.3 0 0 1-3.2-9.2V36.2h11.8v49.9c0 2.8 1.4 4.2 4.1 4.2h4.5l-.1 9.9zm42.3 0h-11.4v-4.4a14.7 14.7 0 0 1-11.6 5c-4.9 0-8.7-1.4-11.5-4.2a15.8 15.8 0 0 1-4.1-9c-.5-3.6-.7-7.2-.6-10.8-.1-3.6.1-7.2.6-10.8.7-3.9 2-6.9 4.1-9 2.8-2.8 6.6-4.2 11.4-4.2s8.6 1.6 11.4 4.7V36.2H384l-.1 64zm-11.8-23.5c0-4.4-.4-7.6-1.3-9.5-1.2-2.6-3.4-3.9-6.6-3.9-3.4 0-5.7 1.5-6.8 4.5-.7 1.8-1 4.8-1 8.9s.3 7.1 1 8.9c1 2.9 3.8 4.8 6.8 4.6 3.2 0 5.4-1.3 6.6-3.9.9-1.9 1.3-5.1 1.3-9.6zm63.4 23.5h-42.2v-64h42.2v11.2h-29.7v15h25.3v11.2h-25.3v15.6h29.7v11zm44.3 0h-11.4v-4.4a14.7 14.7 0 0 1-11.6 5c-4.9 0-8.7-1.4-11.5-4.2a15.8 15.8 0 0 1-4.1-9c-.5-3.6-.7-7.2-.6-10.8-.1-3.6.1-7.2.6-10.8.7-3.9 2-6.9 4.1-9 2.8-2.8 6.6-4.2 11.4-4.2s8.6 1.6 11.4 4.7V36.2h11.8l-.1 64zM468 76.7c0-4.4-.4-7.6-1.3-9.5-1.2-2.6-3.4-3.9-6.6-3.9-3-.2-5.8 1.6-6.9 4.5-.7 1.8-1 4.8-1 8.9s.3 7.1 1 8.9c1 2.9 3.8 4.8 6.9 4.6 3.2 0 5.4-1.3 6.6-3.9.9-1.9 1.3-5.1 1.3-9.6zm33.5-36.6c0 2-.7 3.8-2.1 5.2a7.4 7.4 0 0 1-12.6-5.1 7.3 7.3 0 0 1 14.7-.1zm-1.5 60.1h-11.8V53.3H500v46.9zm29.7 0h-6.4A13 13 0 0 1 513 96a13.3 13.3 0 0 1-3.2-9.2V63.6h-5v-8.9h5V40.8h11.8v13.8h8.2v8.9h-8.2V86c0 2.8 1.3 4.2 4 4.2h4.2l-.1 10z" fill="#2d2d2d" stroke="#fff" stroke-miterlimit="10"/><g><g><defs><path id="SVGID_1_" d="M137.9 64.4c3.9 3.9 3.5 10.5-.4 14.4l-59 59a10 10 0 0 1-14.2.1L5.2 78.8c-3.9-4-4-10.4-.2-14.5l59-59a10.8 10.8 0 0 1 14.7-.1l59.2 59.2z"/></defs><clipPath id="SVGID_00000173876132460633679430000007235194437364130968_"><use xlink:href="#SVGID_1_" overflow="visible"/></clipPath><g clip-path="url(#SVGID_00000173876132460633679430000007235194437364130968_)"><linearGradient id="SVGID_00000054226456722230743440000015874415589493854351_" gradientUnits="userSpaceOnUse" x1="93.4" y1="934.5" x2="93.4" y2="1074.6" gradientTransform="translate(0 -934)"><stop offset="0" stop-color="#f63"/><stop offset="1" stop-color="#ff4a33"/></linearGradient><path d="M90.8 62.1c0 3.5-1.8 6.7-4.9 8.5v23.6l11-11-.1-1.8c0-3.3 1.1-6.2 4.1-7.9V49.9L90.7 60.2l.1 1.9z" fill="url(#SVGID_00000054226456722230743440000015874415589493854351_)"/><g><g class="st3"><path d="M90.8 62.1c0 3.5-1.8 6.7-4.9 8.5v23.6l11-11-.1-1.8c0-3.3 1.1-6.2 4.1-7.9V49.9L90.7 60.2l.1 1.9z"/></g></g><linearGradient id="SVGID_00000180334125031591840650000014500897162107097485_" gradientUnits="userSpaceOnUse" x1="50.8" y1="934.5" x2="50.8" y2="1074.6" gradientTransform="translate(0 -934)"><stop offset="0" stop-color="#f63"/><stop offset="1" stop-color="#ff4a33"/></linearGradient><path d="M30.7 99V70.5c-3-1.8-4.1-4.7-4.1-7.9A9.6 9.6 0 0 1 37.9 53l14.3-14.4-.2-1.8c0-5.4 4.4-9.8 9.8-9.8a9.2 9.2 0 0 1 8.3 4.6h27.8a7.6 7.6 0 0 1 3.7-3.6L74.9 1.4a4.8 4.8 0 0 0-6.8 0L1.4 68.2a4.8 4.8 0 0 0 0 6.8L28 101.5c.8-1 1.7-1.8 2.7-2.5z" fill="url(#SVGID_00000180334125031591840650000014500897162107097485_)"/><g><g class="st3"><path d="M30.7 99V70.5c-3-1.8-4.1-4.7-4.1-7.9A9.6 9.6 0 0 1 37.9 53l14.3-14.4-.2-1.8c0-5.4 4.4-9.8 9.8-9.8a9.2 9.2 0 0 1 8.3 4.6h27.8a7.6 7.6 0 0 1 3.7-3.6L74.9 1.4a4.8 4.8 0 0 0-6.8 0L1.4 68.2a4.8 4.8 0 0 0 0 6.8L28 101.5c.8-1 1.7-1.8 2.7-2.5z"/></g></g><linearGradient id="SVGID_00000181058772344001180600000006038309608329713552_" gradientUnits="userSpaceOnUse" x1="71" y1="934.5" x2="71" y2="1074.6" gradientTransform="translate(0 -934)"><stop offset="0" stop-color="#f63"/><stop offset="1" stop-color="#ff4a33"/></linearGradient><path d="M81 52c.7-.1 1.3-.2 2-.1l10-10.3H69.7a9 9 0 0 1-7.9 4.5l-2-.2L49 56.7h23.6c1.7-3 5-4.8 8.4-4.7z" fill="url(#SVGID_00000181058772344001180600000006038309608329713552_)"/><g><g class="st3"><path d="M81 52c.7-.1 1.3-.2 2-.1l10-10.3H69.7a9 9 0 0 1-7.9 4.5l-2-.2L49 56.7h23.6c1.7-3 5-4.8 8.4-4.7z"/></g></g><linearGradient id="SVGID_00000018200710138606240460000017023001644769667484_" gradientUnits="userSpaceOnUse" x1="58.3" y1="934.5" x2="58.3" y2="1074.6" gradientTransform="translate(0 -934)"><stop offset="0" stop-color="#f63"/><stop offset="1" stop-color="#ff4a33"/></linearGradient><path d="M72.7 100.9c.7-1 1.2-1 2.2-1.7V69.8c0-.5-1-1.1-1.6-2.1H44.4c-.7 1.2-1.6 2.2-2.7 3.2V99c1 .7 1.7.9 2.4 1.9h28.6z" fill="url(#SVGID_00000018200710138606240460000017023001644769667484_)"/><g><g class="st3"><path d="M72.7 100.9c.7-1 1.2-1 2.2-1.7V69.8c0-.5-1-1.1-1.6-2.1H44.4c-.7 1.2-1.6 2.2-2.7 3.2V99c1 .7 1.7.9 2.4 1.9h28.6z"/></g></g><linearGradient id="SVGID_00000080207418203869567080000003936465628152485248_" gradientUnits="userSpaceOnUse" x1="92.4" y1="934.5" x2="92.4" y2="1074.6" gradientTransform="translate(0 -934)"><stop offset="0" stop-color="#f63"/><stop offset="1" stop-color="#ff4a33"/></linearGradient><path d="m141.7 68.2-27.3-26.9a6.8 6.8 0 0 1-3.5 3.4V73c4 1.7 5 4.8 5 8.3a9.6 9.6 0 0 1-9.4 9.8h-.2l-1.9-.2-14.2 14.2.2 2c0 5.2-4.3 9.5-9.5 9.5h-.2a9 9 0 0 1-8.1-4.7H44.1c-.7 1.1-1.5 2.1-2.5 2.9l26.6 26.8a4.9 4.9 0 0 0 6.8.1L141.8 75a4.9 4.9 0 0 0-.1-6.8z" fill="url(#SVGID_00000080207418203869567080000003936465628152485248_)"/><g><g class="st3"><path d="m141.7 68.2-27.3-26.9a6.8 6.8 0 0 1-3.5 3.4V73c4 1.7 5 4.8 5 8.3a9.6 9.6 0 0 1-9.4 9.8h-.2l-1.9-.2-14.2 14.2.2 2c0 5.2-4.3 9.5-9.5 9.5h-.2a9 9 0 0 1-8.1-4.7H44.1c-.7 1.1-1.5 2.1-2.5 2.9l26.6 26.8a4.9 4.9 0 0 0 6.8.1L141.8 75a4.9 4.9 0 0 0-.1-6.8z"/></g></g><path d="M44.1 111.9h28.5a9.4 9.4 0 0 0 8.1 4.7c5.3.1 9.7-4.2 9.8-9.5v-.1l-.2-1.9 14.2-14.2 2 .2c5.2 0 9.4-4.3 9.4-9.5v-.3c0-3.5-1-6.6-5-8.3V44.7a6.5 6.5 0 0 0 3.5-3.4L101.3 28c-1.6.7-2.9 2-3.5 3.6H70.1a9.2 9.2 0 0 0-8.3-4.6 9.8 9.8 0 0 0-9.8 9.8c0 .6 0 1.2.2 1.8L37.8 52.9l-1.6-.1a9.7 9.7 0 0 0-9.7 9.7v.1c0 3.3 1.1 6.2 4.1 7.9V99c-1 .7-1.9 1.5-2.6 2.5l13.6 13.3c1-.8 1.9-1.8 2.5-2.9zm56.8-62v23.5c-3 1.8-4.1 4.7-4.1 7.9l.2 1.8-11.1 11V70.5c3.1-1.7 4.9-5 4.9-8.5l-.1-1.9 10.2-10.2zm-41.2-3.8 2-.1c3.3.1 6.3-1.6 7.9-4.4h23.2L83 52l-2-.2a9.7 9.7 0 0 0-8.5 4.9H49l10.7-10.6zM41.7 99V70.9c1-.9 1.9-2 2.7-3.2h28.9c.5 1 1.6 1.6 1.6 2.1v29.4c-1 .7-1.6.7-2.2 1.7H44.1c-.7-1.1-1.4-1.2-2.4-1.9z" fill="#fff"/></g></g></g></g></g></svg>